<svg height='300px' width='300px'  fill="#48c5f7" xmlns="http://www.w3.org/2000/svg" xmlns:xlink="http://www.w3.org/1999/xlink" viewBox="0 0 47 47" version="1.1" x="0px" y="0px"><title>Rate 3</title><desc>Created with Sketch.</desc><g stroke="none" stroke-width="1" fill="none" fill-rule="evenodd"><g fill="#48c5f7"><path d="M23.5,47 C10.5213084,47 0,36.4786916 0,23.5 C0,10.5213084 10.5213084,0 23.5,0 C36.4786916,0 47,10.5213084 47,23.5 C47,36.4786916 36.4786916,47 23.5,47 Z M14,23 C15.6568542,23 17,21.6568542 17,20 C17,18.3431458 15.6568542,17 14,17 C12.3431458,17 11,18.3431458 11,20 C11,21.6568542 12.3431458,23 14,23 Z M33,23 C34.6568542,23 36,21.6568542 36,20 C36,18.3431458 34.6568542,17 33,17 C31.3431458,17 30,18.3431458 30,20 C30,21.6568542 31.3431458,23 33,23 Z M13,32 C12.4477153,32 12,32.4477153 12,33 C12,33.5522847 12.4477153,34 13,34 L35,34 C35.5522847,34 36,33.5522847 36,33 C36,32.4477153 35.5522847,32 35,32 L13,32 Z M9.61719451,11.8776328 C9.31530176,12.1505006 9.208874,12.5790963 9.34805395,12.9614901 L9.45503077,13.2554947 C9.48124286,13.3275118 9.52028425,13.3941849 9.57026394,13.4522845 C9.79881009,13.7179615 10.1994571,13.7480619 10.4651328,13.5195144 C11.3136844,12.7895557 12.2299072,12.2455223 13.2138013,11.8874141 C14.1976953,11.529306 15.2492607,11.3571231 16.3684973,11.3708673 C16.4451305,11.3718082 16.5213004,11.358859 16.5933175,11.3326469 C16.9226359,11.2127848 17.0924339,10.848652 16.9725717,10.5193335 L16.8655757,10.2253644 C16.7263896,9.84295361 16.3693492,9.58302911 15.9626717,9.56805267 L15.9626712,9.56806682 C14.7487186,9.52336138 13.6129528,9.6934723 12.5553738,10.0783996 C11.4977938,10.4633272 10.5184007,11.0630716 9.61719451,11.8776328 Z M37.3828055,11.8776328 C36.4815993,11.0630716 35.5022062,10.4633272 34.4446262,10.0783996 C33.3870472,9.6934723 32.2512814,9.52336138 31.0373288,9.56806682 L31.0373283,9.56805267 C30.6306508,9.58302911 30.2736104,9.84295361 30.1344243,10.2253644 L30.0274283,10.5193335 C29.9075661,10.848652 30.0773641,11.2127848 30.4066825,11.3326469 C30.4786996,11.358859 30.5548695,11.3718082 30.6315027,11.3708673 C31.7507393,11.3571231 32.8023047,11.529306 33.7861987,11.8874141 C34.7700928,12.2455223 35.6863156,12.7895557 36.5348672,13.5195144 C36.8005429,13.7480619 37.2011899,13.7179615 37.4297361,13.4522845 C37.4797157,13.3941849 37.5187571,13.3275118 37.5449692,13.2554947 L37.6519461,12.9614901 C37.791126,12.5790963 37.6846982,12.1505006 37.3828055,11.8776328 Z"></path></g></g></svg>