<svg height='300px' width='300px'  fill="#48c5f7" xmlns="http://www.w3.org/2000/svg" xmlns:xlink="http://www.w3.org/1999/xlink" viewBox="0 0 47 47" version="1.1" x="0px" y="0px"><title>Rate 4</title><desc>Created with Sketch.</desc><g stroke="none" stroke-width="1" fill="none" fill-rule="evenodd"><g fill="#48c5f7"><path d="M23.5,47 C10.5213084,47 0,36.4786916 0,23.5 C0,10.5213084 10.5213084,0 23.5,0 C36.4786916,0 47,10.5213084 47,23.5 C47,36.4786916 36.4786916,47 23.5,47 Z M14,23 C15.6568542,23 17,21.6568542 17,20 C17,18.3431458 15.6568542,17 14,17 C12.3431458,17 11,18.3431458 11,20 C11,21.6568542 12.3431458,23 14,23 Z M33,23 C34.6568542,23 36,21.6568542 36,20 C36,18.3431458 34.6568542,17 33,17 C31.3431458,17 30,18.3431458 30,20 C30,21.6568542 31.3431458,23 33,23 Z M11.6536949,32.375 C13.321738,36.0813735 17.9953416,38.75 23.5,38.75 C29.0046584,38.75 33.678262,36.0813735 35.3463051,32.375 L32.90856,32.3750006 C31.1904068,34.9680076 27.6226745,36.75 23.5,36.75 C19.3773252,36.75 15.8095926,34.9680073 14.0914396,32.375 L11.6536949,32.375 Z M9.56828205,11.2814393 C9.22359273,11.4977384 9.04435698,11.9013418 9.11502049,12.3020945 L9.16931873,12.6102089 C9.18262695,12.6856836 9.20949756,12.7581232 9.24862905,12.8240191 C9.42756875,13.1253464 9.81690211,13.2245612 10.1182285,13.0456199 C11.0806446,12.4741004 12.0774184,12.0974325 13.1085497,11.9156162 C14.1396811,11.7337999 15.20517,11.7468352 16.3050162,11.9547241 C16.3803218,11.9689579 16.4575831,11.9694322 16.5330578,11.956124 C16.878187,11.8952684 17.1086363,11.5661527 17.0477808,11.2210235 L16.9934575,10.9129407 C16.9227908,10.5121702 16.61631,10.1941951 16.2184116,10.1088274 L16.2184086,10.1088412 C15.0306617,9.85401432 13.8826113,9.82431721 12.7742574,10.0197499 C11.6659024,10.2151828 10.597244,10.6357459 9.56828205,11.2814393 Z M37.431718,11.2814393 C36.402756,10.6357459 35.3340976,10.2151828 34.2257426,10.0197499 C33.1173887,9.82431721 31.9693383,9.85401432 30.7815914,10.1088412 L30.7815884,10.1088274 C30.38369,10.1941951 30.0772092,10.5121702 30.0065425,10.9129407 L29.9522192,11.2210235 C29.8913637,11.5661527 30.121813,11.8952684 30.4669422,11.956124 C30.5424169,11.9694322 30.6196782,11.9689579 30.6949838,11.9547241 C31.79483,11.7468352 32.8603189,11.7337999 33.8914503,11.9156162 C34.9225816,12.0974325 35.9193554,12.4741004 36.8817715,13.0456199 C37.1830979,13.2245612 37.5724312,13.1253464 37.7513709,12.8240191 C37.7905024,12.7581232 37.817373,12.6856836 37.8306813,12.6102089 L37.8849795,12.3020945 C37.955643,11.9013418 37.7764073,11.4977384 37.431718,11.2814393 Z"></path></g></g></svg>