<svg height='300px' width='300px'  fill="#48c5f7" xmlns="http://www.w3.org/2000/svg" xmlns:xlink="http://www.w3.org/1999/xlink" viewBox="0 0 47 47" version="1.1" x="0px" y="0px"><title>Rate 2</title><desc>Created with Sketch.</desc><g stroke="none" stroke-width="1" fill="none" fill-rule="evenodd"><g fill="#48c5f7"><path d="M23.5,47 C10.5213084,47 0,36.4786916 0,23.5 C0,10.5213084 10.5213084,0 23.5,0 C36.4786916,0 47,10.5213084 47,23.5 C47,36.4786916 36.4786916,47 23.5,47 Z M14,23 C15.6568542,23 17,21.6568542 17,20 C17,18.3431458 15.6568542,17 14,17 C12.3431458,17 11,18.3431458 11,20 C11,21.6568542 12.3431458,23 14,23 Z M33,23 C34.6568542,23 36,21.6568542 36,20 C36,18.3431458 34.6568542,17 33,17 C31.3431458,17 30,18.3431458 30,20 C30,21.6568542 31.3431458,23 33,23 Z M13.1159969,34.8810837 C12.5825308,35.0240255 12.2659483,35.5723624 12.4088901,36.1058285 C12.5518319,36.6392946 13.1001689,36.9558771 13.633635,36.8129353 L34.8840031,31.1189163 C35.4174692,30.9759745 35.7340517,30.4276376 35.5911099,29.8941715 C35.4481681,29.3607054 34.8998311,29.0441229 34.366365,29.1870647 L13.1159969,34.8810837 Z M8.0187647,12.9997849 C7.82840458,13.3594501 7.87498357,13.7985988 8.13655631,14.1103291 L8.33763715,14.3500148 C8.38689976,14.4087237 8.4463902,14.458023 8.513227,14.4955247 C8.81885699,14.667012 9.20563696,14.5582678 9.37712261,14.2526369 C9.92483968,13.2764784 10.5997371,12.4518876 11.4018149,11.7788644 C12.2038927,11.1058412 13.1331509,10.5843857 14.18959,10.2144996 C14.2619236,10.1891736 14.3290709,10.1509537 14.3877798,10.1016911 C14.6562427,9.87642404 14.6912598,9.47617681 14.4659927,9.20771394 L14.264906,8.96806812 C14.0033216,8.65632396 13.5789139,8.53418985 13.1916399,8.65920847 L13.1916442,8.65922194 C12.0356118,9.0324088 11.0265224,9.58071556 10.1643761,10.3041422 C9.30222899,11.0275696 8.58702518,11.9261171 8.0187647,12.9997849 Z M37.9812353,12.9997849 C37.4129748,11.9261171 36.697771,11.0275696 35.8356239,10.3041422 C34.9734776,9.58071556 33.9643882,9.0324088 32.8083558,8.65922194 L32.8083601,8.65920847 C32.4210861,8.53418985 31.9966784,8.65632396 31.735094,8.96806812 L31.5340073,9.20771394 C31.3087402,9.47617681 31.3437573,9.87642404 31.6122202,10.1016911 C31.6709291,10.1509537 31.7380764,10.1891736 31.81041,10.2144996 C32.8668491,10.5843857 33.7961073,11.1058412 34.5981851,11.7788644 C35.4002629,12.4518876 36.0751603,13.2764784 36.6228774,14.2526369 C36.794363,14.5582678 37.181143,14.667012 37.486773,14.4955247 C37.5536098,14.458023 37.6131002,14.4087237 37.6623629,14.3500148 L37.8634437,14.1103291 C38.1250164,13.7985988 38.1715954,13.3594501 37.9812353,12.9997849 Z"></path></g></g></svg>